#N canvas 17 23 1305 771 10;
#X obj 151 195 bng 15 250 50 0 empty empty empty 17 7 0 10 -262144
-1 -1;
#X obj 151 240 int 0;
#X obj 200 242 + 1;
#X floatatom 151 270 5 0 0 0 - - -;
#X msg 48 75 Initialize;
#X msg 48 125 0;
#X obj 48 25 loadbang;
#X obj 148 68 tgl 25 0 empty empty empty 17 7 0 10 -261535 -1 -1 1
1;
#X floatatom 247 218 5 0 0 0 - - -;
#X floatatom 377 155 5 0 0 0 - - -;
#X msg 247 118 60000;
#X obj 374 -4 vsl 15 128 30 400 0 0 empty empty empty 0 -9 0 10 -150652
-1 -1 0 1;
#X msg 298 113 60;
#X obj 247 168 /;
#X obj 247 68 loadbang;
#X text 419 154 (BPM);
#X obj 307 531 mtof;
#X floatatom 307 560 5 0 0 0 - - -;
#X obj 221 531 mtof;
#X floatatom 221 560 5 0 0 0 - - -;
#X obj 137 531 mtof;
#X floatatom 137 559 5 0 0 0 - - -;
#X obj 267 684 +~;
#X obj 456 684 *~;
#X obj 451 723 dac~;
#X floatatom 473 639 5 0 0 0 - - -;
#X obj 473 500 vsl 15 100 0 1 0 0 empty empty empty 0 -9 0 10 -228856
-1 -1 500 1;
#X obj 137 632 *~;
#X obj 221 583 osc~;
#X obj 221 633 *~;
#X obj 307 583 osc~;
#X obj 307 633 *~;
#X obj 151 378 sel 0 1 2 3;
#X obj 365 531 mtof;
#X floatatom 365 556 5 0 0 0 - - -;
#X obj 365 583 osc~;
#X obj 365 633 *~;
#X text 256 711 Mixer;
#X obj 261 295 bng 15 250 50 0 empty empty empty 17 7 0 10 -262144
-1 -1;
#X floatatom 261 370 5 0 0 0 - - -;
#X obj 137 470 +;
#X floatatom 137 498 5 0 0 0 - - -;
#X obj 221 470 +;
#X floatatom 221 498 5 0 0 0 - - -;
#X obj 307 470 +;
#X floatatom 307 498 5 0 0 0 - - -;
#X obj 365 470 +;
#X floatatom 365 498 5 0 0 0 - - -;
#X obj 261 330 random 3;
#X obj 151 299 % 4;
#X obj 67 498 tgl 15 0 empty empty empty 17 7 0 10 -257985 -1 -1 0
1;
#X msg 221 436 60;
#X msg 307 436 64;
#X msg 365 436 68;
#X obj 137 583 osc~;
#X msg 137 436 56;
#X text 109 38 Start by clicking here;
#X text 12 377 Counter/Sequencer;
#X text 505 550 Adjust volume here;
#X obj 151 339 hradio 15 1 0 4 empty empty empty 0 -8 0 10 -262144
-1 -1 3;
#X obj 699 250 noise~;
#X obj 715 314 random 1000;
#X obj 716 348 + 200;
#X floatatom 716 398 5 0 0 0 - - -;
#X obj 783 257 bng 15 250 50 0 empty empty empty 17 7 0 10 -262144
-1 -1;
#X obj 696 641 dac~;
#X obj 803 245 noise~;
#X obj 819 309 random 1000;
#X obj 820 343 + 200;
#X floatatom 820 393 5 0 0 0 - - -;
#X obj 887 252 bng 15 250 50 0 empty empty empty 17 7 0 10 -262144
-1 -1;
#X obj 938 243 noise~;
#X obj 954 307 random 1000;
#X obj 955 341 + 200;
#X floatatom 955 391 5 0 0 0 - - -;
#X obj 929 443 bp~ 0 50;
#X obj 1022 250 bng 15 250 50 0 empty empty empty 17 7 0 10 -262144
-1 -1;
#X obj 827 134 bng 15 250 50 0 empty empty empty 17 7 0 10 -262144
-1 -1;
#X obj 794 445 bp~ 0 50;
#X floatatom 893 644 5 0 0 0 - - -;
#X obj 893 505 vsl 15 100 0 1 0 0 empty empty empty 0 -9 0 10 -228856
-1 -1 0 1;
#X text 925 555 Adjust volume here;
#X obj 696 574 *~;
#X obj 148 123 metro;
#X obj 690 450 bp~ 0 50;
#X obj 1059 251 noise~;
#X obj 1075 315 random 1000;
#X obj 1076 349 + 200;
#X floatatom 1076 399 5 0 0 0 - - -;
#X obj 1050 451 bp~ 0 50;
#X obj 1143 258 bng 15 250 50 0 empty empty empty 17 7 0 10 -262144
-1 -1;
#X obj 1202 23 vsl 15 128 30 400 0 0 empty empty empty 0 -9 0 10 -150652
-1 -1 11200 1;
#N canvas 767 23 992 675 melody 0;
#X obj 131 164 metro;
#X floatatom 131 112 5 0 0 0 - - -;
#X obj 128 201 cup;
#X obj 126 230 % 4;
#X obj 133 259 hradio 15 1 0 4 empty empty empty 0 -8 0 10 -262144
-1 -1 3;
#X obj 59 62 inlet;
#X msg 110 355 150;
#X msg 160 356 250;
#X msg 213 357 350;
#X msg 261 355 450;
#X obj 126 574 outlet~;
#X floatatom 257 228 5 0 0 0 - - -;
#X msg 257 128 60000;
#X obj 257 178 /;
#X obj 22 132 inlet;
#X obj 116 429 cycle~;
#X obj 127 526 *~ 1;
#X msg 305 366 550;
#X msg 351 366 650;
#X msg 394 373 200;
#X obj 347 517 cycle~;
#X msg 440 369 1000;
#X msg 490 372 1200;
#X obj 133 298 sel 0 1 2 3 4 5 6 7 8 9;
#X obj 231 266 random 10;
#X obj 375 473 pipe 300;
#X connect 0 0 24 0;
#X connect 1 0 12 0;
#X connect 1 0 13 1;
#X connect 2 0 3 0;
#X connect 3 0 4 0;
#X connect 5 0 1 0;
#X connect 6 0 15 0;
#X connect 6 0 25 0;
#X connect 7 0 15 0;
#X connect 7 0 25 0;
#X connect 8 0 15 0;
#X connect 8 0 25 0;
#X connect 9 0 15 0;
#X connect 9 0 25 0;
#X connect 11 0 0 1;
#X connect 12 0 13 0;
#X connect 13 0 11 0;
#X connect 14 0 0 0;
#X connect 15 0 16 0;
#X connect 16 0 10 0;
#X connect 17 0 15 0;
#X connect 17 0 25 0;
#X connect 18 0 15 0;
#X connect 18 0 25 0;
#X connect 19 0 15 0;
#X connect 19 0 25 0;
#X connect 20 0 16 0;
#X connect 21 0 15 0;
#X connect 21 0 25 0;
#X connect 22 0 15 0;
#X connect 22 0 25 0;
#X connect 23 0 6 0;
#X connect 23 1 7 0;
#X connect 23 2 8 0;
#X connect 23 3 9 0;
#X connect 23 4 17 0;
#X connect 23 5 18 0;
#X connect 23 7 19 0;
#X connect 23 8 21 0;
#X connect 23 9 22 0;
#X connect 24 0 23 0;
#X connect 25 0 20 0;
#X restore 1193 185 pd melody;
#X obj 1156 163 tgl 15 0 empty empty empty 17 7 0 10 -262144 -1 -1
0 1;
#X obj 559 52 key;
#X floatatom 558 86 5 0 0 0 - - -;
#N canvas 580 261 630 551 playSample 1;
#X obj 30 33 inlet;
#X obj 30 83 sel 115 105 111 106 107 108 8 44 46;
#X text 271 87 UIO JKL M \, .;
#X connect 0 0 1 0;
#X restore 550 144 pd playSample;
#X connect 0 0 1 0;
#X connect 1 0 3 0;
#X connect 1 0 2 0;
#X connect 2 0 1 1;
#X connect 3 0 49 0;
#X connect 4 0 5 0;
#X connect 5 0 1 0;
#X connect 5 0 1 1;
#X connect 6 0 4 0;
#X connect 7 0 10 0;
#X connect 7 0 83 0;
#X connect 8 0 83 1;
#X connect 9 0 13 1;
#X connect 9 0 10 0;
#X connect 10 0 13 0;
#X connect 11 0 9 0;
#X connect 12 0 9 0;
#X connect 13 0 8 0;
#X connect 14 0 12 0;
#X connect 14 0 10 0;
#X connect 16 0 17 0;
#X connect 17 0 30 0;
#X connect 18 0 19 0;
#X connect 19 0 28 0;
#X connect 20 0 21 0;
#X connect 21 0 54 0;
#X connect 22 0 23 0;
#X connect 23 0 24 0;
#X connect 23 0 24 1;
#X connect 25 0 23 1;
#X connect 26 0 25 0;
#X connect 27 0 22 0;
#X connect 28 0 29 0;
#X connect 29 0 22 0;
#X connect 30 0 31 0;
#X connect 31 0 22 0;
#X connect 32 0 55 0;
#X connect 32 1 51 0;
#X connect 32 2 52 0;
#X connect 32 3 53 0;
#X connect 33 0 34 0;
#X connect 34 0 35 0;
#X connect 35 0 36 0;
#X connect 36 0 22 0;
#X connect 38 0 48 0;
#X connect 39 0 40 1;
#X connect 39 0 42 1;
#X connect 39 0 44 1;
#X connect 39 0 46 1;
#X connect 40 0 41 0;
#X connect 41 0 20 0;
#X connect 42 0 43 0;
#X connect 43 0 18 0;
#X connect 44 0 45 0;
#X connect 45 0 16 0;
#X connect 46 0 47 0;
#X connect 47 0 33 0;
#X connect 48 0 39 0;
#X connect 49 0 59 0;
#X connect 50 0 27 1;
#X connect 50 0 29 1;
#X connect 50 0 31 1;
#X connect 50 0 36 1;
#X connect 51 0 42 0;
#X connect 52 0 44 0;
#X connect 53 0 46 0;
#X connect 54 0 27 0;
#X connect 55 0 40 0;
#X connect 59 0 32 0;
#X connect 60 0 84 0;
#X connect 61 0 62 0;
#X connect 62 0 63 0;
#X connect 63 0 84 1;
#X connect 64 0 61 0;
#X connect 66 0 78 0;
#X connect 67 0 68 0;
#X connect 68 0 69 0;
#X connect 69 0 78 1;
#X connect 70 0 67 0;
#X connect 71 0 75 0;
#X connect 72 0 73 0;
#X connect 73 0 74 0;
#X connect 74 0 75 1;
#X connect 75 0 82 0;
#X connect 76 0 72 0;
#X connect 77 0 64 0;
#X connect 77 0 70 0;
#X connect 77 0 76 0;
#X connect 77 0 90 0;
#X connect 78 0 82 0;
#X connect 79 0 82 1;
#X connect 80 0 79 0;
#X connect 82 0 65 0;
#X connect 82 0 65 1;
#X connect 83 0 0 0;
#X connect 83 0 38 0;
#X connect 84 0 82 0;
#X connect 85 0 89 0;
#X connect 86 0 87 0;
#X connect 87 0 88 0;
#X connect 88 0 89 1;
#X connect 89 0 82 0;
#X connect 90 0 86 0;
#X connect 91 0 92 1;
#X connect 93 0 92 0;
#X connect 94 0 95 0;
